<?xml version="1.0" encoding="UTF-8"?>
<svg xmlns="http://www.w3.org/2000/svg" version="1.1" viewBox="0 0 500 500">
  <!-- Generator: Adobe Illustrator 29.1.0, SVG Export Plug-In . SVG Version: 2.1.0 Build 142)  -->
  <defs>
    <style>
      .st0, .st1, .st2, .st3, .st4, .st5 {
        fill: #fff;
      }

      .st0, .st6 {
        opacity: .2;
      }

      .st7 {
        fill: #526eff;
      }

      .st8 {
        fill: #263238;
      }

      .st9 {
        fill: #f0f0f0;
      }

      .st10, .st3 {
        opacity: .3;
      }

      .st11 {
        fill: #37474f;
      }

      .st2 {
        opacity: .5;
      }

      .st12 {
        fill: #e0e0e0;
      }

      .st13 {
        fill: #455a64;
      }

      .st4 {
        opacity: 0;
      }

      .st14 {
        fill: #f5f5f5;
      }

      .st5, .st15 {
        opacity: .7;
      }
    </style>
  </defs>
  <g id="Floor">
    <path id="Floor1" data-name="Floor" class="st14" d="M86.6,249.4c-90.2,52.1-90.2,136.6,0,188.7,90.2,52.1,236.5,52.1,326.8,0,90.2-52.1,90.2-136.6,0-188.7-90.2-52.1-236.5-52.1-326.8,0Z"/>
  </g>
  <g id="Shadow">
    <path id="Shadow1" data-name="Shadow" class="st12" d="M279.3,445.7c-3.3,0-6.4-.6-8.8-1.8l-171.8-82.9c-1.5-.7-2.7-1.6-3.5-2.7h0c-1.3-1.7-1.4-4-.3-5.9h0c.7-1.1,1.9-2.2,3.4-3.1l124-71.6c2.4-1.4,5.4-2.1,8.6-2.1s7.4,1,10.1,2.8l142.6,98c2.6,1.8,4,4.2,3.9,6.7,0,2.4-1.6,4.6-4.4,6.2l-93.3,53.9c-2.8,1.6-6.6,2.5-10.6,2.5Z"/>
  </g>
  <g id="Shopping_Cart">
    <g id="Cart">
      <g>
        <path class="st8" d="M240.3,108.8l-4.1,2.4-6.7-27.5c-1.9-7.8-9.4-17.8-16.4-21.8l-3.8-2.2c-1.9-1.1-5.3-1.1-7.2,0l-11.5,6.6c-1.1.6-2.5.3-3.1-.8-.6-1.1-.3-2.5.8-3.1l11.5-6.6c3.3-1.9,8.4-1.9,11.7,0l3.8,2.2c8,4.6,16.3,15.7,18.5,24.6l6.4,26.2Z"/>
        <g>
          <path class="st7" d="M105.4,122.4l-7.4-12.8,92.1-53.2h0c1-.8,2.4-.7,4,.2,2.9,1.7,5.2,5.7,5.2,9.1,0,1.9-.7,3.1-1.8,3.6h0s-92.1,53.2-92.1,53.2Z"/>
          <path class="st4" d="M101,114.8l96.1-55.4c-.7-1-1.5-1.8-2.4-2.5l-95.3,55,1.7,2.9Z"/>
          <path class="st7" d="M98,109.6c1.9-1.1,5.2.8,7.2,4.4,2,3.5,2.1,7.3.2,8.4-1.9,1.1-5.2-.8-7.2-4.4-2-3.5-2.1-7.3-.2-8.4Z"/>
          <path class="st10" d="M98,109.6c1.9-1.1,5.2.8,7.2,4.4,2,3.5,2.1,7.3.2,8.4-1.9,1.1-5.2-.8-7.2-4.4-2-3.5-2.1-7.3-.2-8.4Z"/>
        </g>
        <path class="st8" d="M122.5,177.7l-4.1,2.4-6.7-27.5c-1.9-7.8-9.4-17.7-16.4-21.7l-3.8-2.2c-2-1.1-3.1-2.8-3.1-4.7s1.1-3.6,3.1-4.7l8.2-4.7c.6-.3,1.6.3,2.2,1.3.6,1.1.7,2.3,0,2.6h0l-8.2,4.7c-.7.4-.8.7-.8.7,0,0,.2.4.8.8l3.8,2.2c8,4.6,16.3,15.7,18.5,24.6l6.5,26.2Z"/>
      </g>
      <g>
        <g>
          <path class="st12" d="M246.2,392.7c0,0,.1,0,.2,0-6.2,8.1-16.4,10.4-18.7,9.3-1.8-.9-2.9-3-1.5-4.4.6-.6,1.8-1.2,2.8-2.1,3.1-2.5,4.1-7,4.4-10.4l12.9,7.4Z"/>
          <g class="st6">
            <path d="M246.2,392.7c0,0,.1,0,.2,0-6.2,8.1-16.4,10.4-18.7,9.3-1.8-.9-2.9-3-1.5-4.4.6-.6,1.8-1.2,2.8-2.1,3.1-2.5,4.1-7,4.4-10.4l12.9,7.4Z"/>
          </g>
          <g>
            <path class="st11" d="M239.8,405.2c0-6.5-4.5-14.5-10.1-17.8-3-1.7-5.6-1.8-7.5-.6h0l-6.9,3.9,14.5,25,6.9-3.9h0c1.9-1,3.1-3.3,3.2-6.7Z"/>
            <path class="st13" d="M222.5,391.5c5.6,3.3,10.2,11.3,10.1,17.8,0,6.5-4.6,9.1-10.3,5.8-5.6-3.3-10.2-11.3-10.1-17.8,0-6.5,4.6-9.1,10.3-5.8Z"/>
            <path class="st8" d="M219,401.3c0-2.5,1.6-3.7,3.5-2.6,1.9,1.1,3.4,4.1,3.4,6.6,0,2.5-1.6,3.7-3.5,2.6-1.9-1.1-3.4-4.1-3.4-6.6Z"/>
          </g>
          <g>
            <path class="st14" d="M228.5,382.5s.7,12-4.8,16.6c-1,.9-2.2,1.5-2.8,2.1-1.4,1.3-.3,3.5,1.5,4.4,2.7,1.2,16.4-2.3,21.7-14.1l-15.6-9Z"/>
            <path class="st8" d="M222.6,402c.6.3,1.1,1.1,1.1,1.7,0,.6-.4.9-1,.6-.6-.3-1.1-1.1-1.1-1.7,0-.6.4-.9,1-.6Z"/>
          </g>
        </g>
        <g>
          <path class="st12" d="M176.2,358.7c0,0,.2,0,.2,0-6.2,8.1-16.4,10.4-18.7,9.3-1.8-.8-2.9-3-1.5-4.4.6-.6,1.8-1.2,2.8-2.1,3.1-2.5,4.1-7,4.4-10.4l12.9,7.4Z"/>
          <g class="st6">
            <path d="M176.2,358.7c0,0,.2,0,.2,0-6.2,8.1-16.4,10.4-18.7,9.3-1.8-.8-2.9-3-1.5-4.4.6-.6,1.8-1.2,2.8-2.1,3.1-2.5,4.1-7,4.4-10.4l12.9,7.4Z"/>
          </g>
          <g>
            <path class="st11" d="M169.8,371.2c0-6.5-4.5-14.5-10.1-17.8-3-1.7-5.6-1.8-7.5-.6h0l-6.9,3.9,14.5,25,6.9-3.9h0c1.9-1,3.1-3.3,3.2-6.7Z"/>
            <path class="st13" d="M152.5,357.5c5.6,3.3,10.2,11.3,10.1,17.8,0,6.5-4.6,9.1-10.3,5.8-5.6-3.3-10.2-11.3-10.1-17.8,0-6.5,4.6-9.1,10.3-5.8Z"/>
            <path class="st8" d="M148.9,367.3c0-2.5,1.6-3.7,3.5-2.6,1.9,1.1,3.4,4.1,3.4,6.6,0,2.5-1.6,3.7-3.5,2.6-1.9-1.1-3.4-4.1-3.4-6.6Z"/>
          </g>
          <g>
            <path class="st14" d="M158.5,348.5s.7,12-4.8,16.6c-1,.9-2.2,1.5-2.8,2.1-1.4,1.3-.3,3.5,1.5,4.4,2.7,1.2,16.4-2.3,21.7-14.1l-15.6-9Z"/>
            <path class="st8" d="M152.6,368c.6.3,1.1,1.1,1.1,1.7,0,.6-.4.9-1,.6-.6-.3-1.1-1.1-1.1-1.7,0-.6.4-.9,1-.6Z"/>
          </g>
        </g>
        <g>
          <path class="st12" d="M346.3,335.2c-6.2,8.1-16.4,10.4-18.7,9.3-1.8-.8-2.9-3-1.5-4.4.6-.6,1.8-1.2,2.8-2.1,3.1-2.5,4.1-7,4.4-10.4l12.1,7,.8.4h.2Z"/>
          <g class="st6">
            <path d="M346.3,335.2c-6.2,8.1-16.4,10.4-18.7,9.3-1.8-.8-2.9-3-1.5-4.4.6-.6,1.8-1.2,2.8-2.1,3.1-2.5,4.1-7,4.4-10.4l12.1,7,.8.4h.2Z"/>
          </g>
          <g>
            <path class="st11" d="M339.7,347.6c0-6.5-4.5-14.5-10.1-17.8-3-1.7-5.6-1.8-7.5-.6h0l-6.9,3.9,14.5,25,6.9-3.9h0c1.9-1,3.1-3.3,3.2-6.7Z"/>
            <path class="st13" d="M322.4,333.9c5.6,3.3,10.2,11.3,10.1,17.8,0,6.5-4.6,9.1-10.3,5.8-5.6-3.3-10.2-11.3-10.1-17.8,0-6.5,4.6-9.1,10.3-5.8Z"/>
            <path class="st8" d="M318.9,343.7c0-2.5,1.6-3.7,3.5-2.6,1.9,1.1,3.4,4.1,3.4,6.6,0,2.5-1.6,3.7-3.5,2.6-1.9-1.1-3.4-4.1-3.4-6.6Z"/>
          </g>
          <g>
            <path class="st14" d="M328.4,324.9s.7,12-4.8,16.6c-1,.9-2.2,1.5-2.8,2.1-1.4,1.3-.3,3.5,1.5,4.4,2.7,1.2,16.4-2.3,21.7-14.1l-15.6-9Z"/>
            <path class="st8" d="M322.6,344.4c.6.3,1.1,1.1,1.1,1.7,0,.6-.4.9-1,.6-.6-.3-1.1-1.1-1.1-1.7,0-.6.4-.9,1-.6Z"/>
          </g>
        </g>
        <g>
          <path class="st12" d="M286,295.3c0,0,.2,0,.2,0-6.2,8.1-16.4,10.4-18.7,9.3-1.8-.8-2.9-3-1.5-4.4.6-.6,1.8-1.2,2.8-2.1,3.1-2.5,4.1-7,4.4-10.4l12.9,7.4Z"/>
          <g class="st6">
            <path d="M286,295.3c0,0,.2,0,.2,0-6.2,8.1-16.4,10.4-18.7,9.3-1.8-.8-2.9-3-1.5-4.4.6-.6,1.8-1.2,2.8-2.1,3.1-2.5,4.1-7,4.4-10.4l12.9,7.4Z"/>
          </g>
          <g>
            <path class="st11" d="M279.6,307.8c0-6.5-4.5-14.5-10.1-17.8-3-1.7-5.6-1.8-7.5-.6h0l-6.9,3.9,14.5,25,6.9-3.9h0c1.9-1,3.1-3.3,3.2-6.7Z"/>
            <path class="st13" d="M262.3,294.1c5.6,3.3,10.2,11.3,10.1,17.8,0,6.5-4.6,9.1-10.3,5.8-5.6-3.3-10.2-11.3-10.1-17.8,0-6.5,4.6-9.1,10.3-5.8Z"/>
            <path class="st8" d="M258.8,303.9c0-2.5,1.6-3.7,3.5-2.6,1.9,1.1,3.4,4.1,3.4,6.6,0,2.5-1.6,3.7-3.5,2.6-1.9-1.1-3.4-4.1-3.4-6.6Z"/>
          </g>
          <g>
            <path class="st14" d="M268.3,285.1s.7,12-4.8,16.6c-1,.9-2.2,1.5-2.8,2.1-1.4,1.3-.3,3.5,1.5,4.4,2.7,1.2,16.4-2.3,21.7-14.1l-15.6-9Z"/>
            <path class="st8" d="M262.4,304.6c.6.3,1.1,1.1,1.1,1.7,0,.6-.4.9-1,.6-.6-.3-1.1-1.1-1.1-1.7,0-.6.4-.9,1-.6Z"/>
          </g>
        </g>
        <path class="st13" d="M281.4,407.9c-4.4,0-8.8-.8-12.4-2.5l-122.4-59.1c-12.5-6-20.9-18.4-22-32.2l-12.2-158.1,5.5-.4,12.2,158.1c.9,11.9,8.2,22.5,18.9,27.7l122.4,59.1c6.1,2.9,16.1,2.6,21.9-.8l68-39.3c2.3-1.4,3.7-3.1,3.7-4.9,0-1.8-1.1-3.7-3.3-5.2l-103.2-70.9c-9.8-6.7-15.9-17.4-16.9-29.2l-12.5-161.1,5.5-.4,12.5,161.1c.8,10.2,6.1,19.3,14.5,25.1l103.2,70.9c3.8,2.6,5.9,6.2,5.7,10-.1,3.7-2.5,7.2-6.5,9.5l-68,39.3c-4.1,2.3-9.4,3.5-14.7,3.5Z"/>
      </g>
      <g>
        <g>
          <path class="st7" d="M371.9,296.4l-126.5-86.9c-1.6-1.1-3.9-1.7-6.3-1.7s-4,.4-5.4,1.3l-110.1,63.6c-.8.5-1.2.9-1.3,1.1.1.2.6.6,1.4,1l152.4,73.6c1.5.7,3.6,1.1,5.8,1.1s5.3-.6,7.1-1.6l82.8-47.8c.9-.5,1.6-1.2,1.6-1.7,0-.5-.5-1.2-1.4-1.9ZM330.7,317.1l-15.2,8.8c-2.2,1.3-5.8,1.3-8.1,0l-38.6-21.1c-.2-.1-.4-.2-.6-.4.2-.1.3-.2.5-.4l17.2-10c2.2-1.3,5.8-1.2,8,0l36.7,22c.2.1.4.3.6.4-.2.2-.4.3-.6.5ZM301.6,333.9l-15.3,8.8c-2.2,1.3-5.9,1.4-8.1.3l-40.8-20.1c-.2,0-.4-.2-.5-.3.1,0,.3-.2.4-.3l17.2-9.9c2.2-1.3,5.8-1.3,8.1-.1l39,20.9c.2.1.4.2.6.4-.2.1-.3.2-.5.3ZM139.1,273.9l21-12.1c2.2-1.3,5.8-1.3,8.1-.1l33.1,17.8c.2.1.4.2.6.4-.2.1-.3.2-.5.3l-19.3,11.2c-2.2,1.3-5.9,1.4-8.2.3l-34.6-17.1c-.2,0-.4-.2-.5-.3.1,0,.3-.2.4-.2ZM175.5,253l21.2-12.3c2.2-1.3,5.8-1.2,8,0l31.2,18.6c.2.1.4.3.6.4-.2.2-.4.3-.6.5l-19.5,11.2c-2.2,1.3-5.8,1.3-8.1,0l-32.7-17.9c-.2-.1-.4-.2-.6-.4.2-.1.3-.2.5-.4ZM280.4,287l-17.5,10.1c-2.2,1.3-5.8,1.3-8.1,0l-32.7-17.9c-.2-.1-.4-.2-.6-.4.2-.1.3-.2.5-.4l19.2-11.1c2.2-1.3,5.8-1.2,8,0l31.1,18.6c.2.1.4.3.6.4-.2.2-.4.3-.6.5ZM312.4,268.6l-17.6,10.1c-2.2,1.3-5.8,1.2-8-.1l-30.7-18.8c-.2-.1-.4-.3-.6-.5.2-.2.4-.3.7-.5l19.4-11.2c2.2-1.3,5.7-1.2,7.8.3l29.1,19.6c.2.2.4.3.6.5-.2.2-.5.4-.8.6ZM270.3,240.4l-19.6,11.3c-2.2,1.3-5.8,1.2-8-.1l-30.7-18.8c-.2-.1-.4-.3-.6-.5.2-.2.4-.3.7-.5l21.5-12.4c2.2-1.3,5.7-1.2,7.8.3l29.1,19.6c.2.2.4.3.6.5-.2.2-.5.4-.8.6ZM188.2,298.1l19.1-11c2.2-1.3,5.8-1.3,8.1-.1l33.1,17.8c.2.1.4.2.6.4-.2.1-.3.2-.5.3l-17.4,10.1c-2.2,1.3-5.9,1.4-8.2.3l-34.6-17.1c-.2,0-.4-.2-.5-.3.1,0,.3-.2.4-.2ZM299.7,286.4c.2-.2.4-.3.7-.5l17.3-10c2.2-1.3,5.7-1.2,7.9.3l34.4,23.1c.2.2.4.3.6.5-.2.2-.5.4-.8.6l-15.2,8.8c-2.2,1.3-5.8,1.2-7.9-.1l-36.3-22.2c-.2-.1-.4-.3-.6-.5Z"/>
          <g class="st15">
            <path class="st1" d="M371.9,296.4l-126.5-86.9c-1.6-1.1-3.9-1.7-6.3-1.7s-4,.4-5.4,1.3l-110.1,63.6c-.8.5-1.2.9-1.3,1.1.1.2.6.6,1.4,1l152.4,73.6c1.5.7,3.6,1.1,5.8,1.1s5.3-.6,7.1-1.6l82.8-47.8c.9-.5,1.6-1.2,1.6-1.7,0-.5-.5-1.2-1.4-1.9ZM330.7,317.1l-15.2,8.8c-2.2,1.3-5.8,1.3-8.1,0l-38.6-21.1c-.2-.1-.4-.2-.6-.4.2-.1.3-.2.5-.4l17.2-10c2.2-1.3,5.8-1.2,8,0l36.7,22c.2.1.4.3.6.4-.2.2-.4.3-.6.5ZM301.6,333.9l-15.3,8.8c-2.2,1.3-5.9,1.4-8.1.3l-40.8-20.1c-.2,0-.4-.2-.5-.3.1,0,.3-.2.4-.3l17.2-9.9c2.2-1.3,5.8-1.3,8.1-.1l39,20.9c.2.1.4.2.6.4-.2.1-.3.2-.5.3ZM139.1,273.9l21-12.1c2.2-1.3,5.8-1.3,8.1-.1l33.1,17.8c.2.1.4.2.6.4-.2.1-.3.2-.5.3l-19.3,11.2c-2.2,1.3-5.9,1.4-8.2.3l-34.6-17.1c-.2,0-.4-.2-.5-.3.1,0,.3-.2.4-.2ZM175.5,253l21.2-12.3c2.2-1.3,5.8-1.2,8,0l31.2,18.6c.2.1.4.3.6.4-.2.2-.4.3-.6.5l-19.5,11.2c-2.2,1.3-5.8,1.3-8.1,0l-32.7-17.9c-.2-.1-.4-.2-.6-.4.2-.1.3-.2.5-.4ZM280.4,287l-17.5,10.1c-2.2,1.3-5.8,1.3-8.1,0l-32.7-17.9c-.2-.1-.4-.2-.6-.4.2-.1.3-.2.5-.4l19.2-11.1c2.2-1.3,5.8-1.2,8,0l31.1,18.6c.2.1.4.3.6.4-.2.2-.4.3-.6.5ZM312.4,268.6l-17.6,10.1c-2.2,1.3-5.8,1.2-8-.1l-30.7-18.8c-.2-.1-.4-.3-.6-.5.2-.2.4-.3.7-.5l19.4-11.2c2.2-1.3,5.7-1.2,7.8.3l29.1,19.6c.2.2.4.3.6.5-.2.2-.5.4-.8.6ZM270.3,240.4l-19.6,11.3c-2.2,1.3-5.8,1.2-8-.1l-30.7-18.8c-.2-.1-.4-.3-.6-.5.2-.2.4-.3.7-.5l21.5-12.4c2.2-1.3,5.7-1.2,7.8.3l29.1,19.6c.2.2.4.3.6.5-.2.2-.5.4-.8.6ZM188.2,298.1l19.1-11c2.2-1.3,5.8-1.3,8.1-.1l33.1,17.8c.2.1.4.2.6.4-.2.1-.3.2-.5.3l-17.4,10.1c-2.2,1.3-5.9,1.4-8.2.3l-34.6-17.1c-.2,0-.4-.2-.5-.3.1,0,.3-.2.4-.2ZM299.7,286.4c.2-.2.4-.3.7-.5l17.3-10c2.2-1.3,5.7-1.2,7.9.3l34.4,23.1c.2.2.4.3.6.5-.2.2-.5.4-.8.6l-15.2,8.8c-2.2,1.3-5.8,1.2-7.9-.1l-36.3-22.2c-.2-.1-.4-.3-.6-.5Z"/>
          </g>
          <path class="st7" d="M248.5,300.9l-33.1-17.8c-2.2-1.2-5.9-1.1-8.1.1l-19.1,11c-2,1.2-2.1,2.9-.4,4,.1,0,.3-.2.4-.2l19.1-11c2.2-1.3,5.8-1.3,8.1-.1l33.1,17.8c.2.1.4.2.6.4,1.7-1.3,1.5-3.1-.6-4.2ZM359.9,295.5l-34.4-23.1c-2.1-1.4-5.6-1.5-7.9-.3l-17.3,10c-2,1.1-2.2,2.9-.7,4.3.2-.2.4-.3.7-.5l17.3-10c2.2-1.3,5.7-1.2,7.9.3l34.4,23.1c.2.2.4.3.6.5,1.4-1.3,1.2-3.1-.6-4.3ZM201.4,275.7l-33.1-17.8c-2.3-1.2-5.9-1.1-8.1.1l-21,12.1c-2,1.2-2.1,2.9-.4,4,.1,0,.3-.2.4-.2l21-12.1c2.2-1.3,5.8-1.3,8.1-.1l33.1,17.8c.2.1.4.2.6.4,1.7-1.3,1.5-3.1-.6-4.2ZM301.6,329.4l-39-20.9c-2.3-1.2-5.9-1.2-8.1.1l-17.2,9.9c-2,1.2-2.1,2.9-.4,4.1.1,0,.3-.2.4-.3l17.2-9.9c2.2-1.3,5.8-1.3,8.1-.1l39,20.9c.2.1.4.2.6.4,1.7-1.3,1.5-3.1-.6-4.2ZM330.7,312.4l-36.7-22c-2.2-1.3-5.8-1.3-8,0l-17.2,10c-2,1.2-2.2,2.9-.5,4.2.2-.1.3-.2.5-.4l17.2-10c2.2-1.3,5.8-1.2,8,0l36.7,22c.2.1.4.3.6.4,1.5-1.3,1.3-3.1-.6-4.2ZM235.8,255.6l-31.2-18.6c-2.2-1.3-5.8-1.3-8,0l-21.2,12.3c-2,1.2-2.2,2.9-.5,4.2.2-.1.3-.2.5-.4l21.2-12.3c2.2-1.3,5.8-1.2,8,0l31.2,18.6c.2.1.4.3.6.4,1.5-1.3,1.3-3.1-.6-4.2ZM270.5,235.5l-29.1-19.6c-2.1-1.4-5.6-1.5-7.8-.3l-21.5,12.4c-2,1.1-2.2,2.9-.7,4.3.2-.2.4-.3.7-.5l21.5-12.4c2.2-1.3,5.7-1.2,7.8.3l29.1,19.6c.2.2.4.3.6.5,1.4-1.3,1.2-3.1-.6-4.3ZM280.5,282.4l-31.1-18.6c-2.2-1.3-5.8-1.3-8,0l-19.2,11.1c-2,1.2-2.2,2.9-.5,4.2.2-.1.3-.2.5-.4l19.2-11.1c2.2-1.3,5.8-1.2,8,0l31.1,18.6c.2.1.4.3.6.4,1.5-1.3,1.3-3.1-.6-4.2ZM312.6,263.7l-29.1-19.6c-2.1-1.4-5.6-1.5-7.8-.3l-19.4,11.2c-2,1.1-2.2,3-.7,4.3.2-.2.4-.3.7-.5l19.4-11.2c2.2-1.3,5.7-1.2,7.8.3l29.1,19.6c.2.2.4.3.6.5,1.4-1.3,1.2-3.1-.6-4.3Z"/>
          <path class="st3" d="M201.9,279.8c1.7-1.3,1.5-3.1-.6-4.2l-33.1-17.8c-2.3-1.2-5.9-1.1-8.1.1l-21,12.1c-2,1.2-2.1,2.9-.4,4,.1,0,.3-.2.4-.2l21-12.1c2.2-1.3,5.8-1.3,8.1-.1l33.1,17.8c.2.1.4.2.6.4ZM174.9,253.3c.2-.1.3-.2.5-.4l21.2-12.3c2.2-1.3,5.8-1.2,8,0l31.2,18.6c.2.1.4.3.6.4,1.5-1.3,1.3-3.1-.6-4.2l-31.2-18.6c-2.2-1.3-5.8-1.3-8,0l-21.2,12.3c-2,1.2-2.2,2.9-.5,4.2ZM255.5,259.4c.2-.2.4-.3.7-.5l19.4-11.2c2.2-1.3,5.7-1.2,7.8.3l29.1,19.6c.2.2.4.3.6.5,1.4-1.3,1.2-3.1-.6-4.3l-29.1-19.6c-2.1-1.4-5.6-1.5-7.8-.3l-19.4,11.2c-2,1.1-2.2,3-.7,4.3ZM249.3,263.7c-2.2-1.3-5.8-1.3-8,0l-19.2,11.1c-2,1.2-2.2,2.9-.5,4.2.2-.1.3-.2.5-.4l19.2-11.1c2.2-1.3,5.8-1.2,8,0l31.1,18.6c.2.1.4.3.6.4,1.5-1.3,1.3-3.1-.6-4.2l-31.1-18.6ZM212.1,231.8l21.5-12.4c2.2-1.3,5.7-1.2,7.8.3l29.1,19.6c.2.2.4.3.6.5,1.4-1.3,1.2-3.1-.6-4.3l-29.1-19.6c-2.1-1.4-5.6-1.5-7.8-.3l-21.5,12.4c-2,1.1-2.2,2.9-.7,4.3.2-.2.4-.3.7-.5ZM330.7,312.4l-36.7-22c-2.2-1.3-5.8-1.3-8,0l-17.2,10c-2,1.2-2.2,2.9-.5,4.2.2-.1.3-.2.5-.4l17.2-10c2.2-1.3,5.8-1.2,8,0l36.7,22c.2.1.4.3.6.4,1.5-1.3,1.3-3.1-.6-4.2ZM249.1,305.1c1.7-1.3,1.5-3.1-.6-4.2l-33.1-17.8c-2.2-1.2-5.9-1.1-8.1.1l-19.1,11c-2,1.2-2.1,2.9-.4,4,.1,0,.3-.2.4-.2l19.1-11c2.2-1.3,5.8-1.3,8.1-.1l33.1,17.8c.2.1.4.2.6.4ZM359.9,295.5l-34.4-23.1c-2.1-1.4-5.6-1.5-7.9-.3l-17.3,10c-2,1.1-2.2,2.9-.7,4.3.2-.2.4-.3.7-.5l17.3-10c2.2-1.3,5.7-1.2,7.9.3l34.4,23.1c.2.2.4.3.6.5,1.4-1.3,1.2-3.1-.6-4.3ZM301.6,329.4l-39-20.9c-2.3-1.2-5.9-1.2-8.1.1l-17.2,9.9c-2,1.2-2.1,2.9-.4,4.1.1,0,.3-.2.4-.3l17.2-9.9c2.2-1.3,5.8-1.3,8.1-.1l39,20.9c.2.1.4.2.6.4,1.7-1.3,1.5-3.1-.6-4.2Z"/>
        </g>
        <g>
          <g>
            <path class="st7" d="M240.1,205.8v-1.8c0,0-5-116.5-5-116.5-.5,0-1-.1-1.6-.1-1.8,0-3.6.4-4.9,1.2l-114,65.8c-1.2.7-1.4,1.2-1.4,1.3l8.7,113.5.5,4.3c.1-.2.5-.6,1.3-1.1l110.1-63.6c1.4-.8,3.3-1.3,5.4-1.3s.7,0,1.1,0v-1.9ZM223.7,164.9l-21.8,12.6c-.4.2-.7.4-1.1.4,0-.3-.1-.6-.1-.9l-1.1-20.7c-.1-2.6,1.5-5.7,3.8-6.9l22.1-12.8c.4-.2.7-.4,1-.4,0,.3.1.6.1.9l.9,20.8c.1,2.6-1.6,5.7-3.8,6.9ZM224.8,99.6l.9,20.8c.1,2.6-1.6,5.7-3.8,6.9l-22.2,12.8c-.4.2-.7.4-1.1.4,0-.3-.1-.6-.1-.9l-1.1-20.7c-.1-2.5,1.5-5.7,3.8-6.9l22.4-12.9c.4-.2.7-.4,1-.4,0,.3.1.6.1.9ZM165.7,171.2l22.1-12.8c.4-.2.7-.4,1.1-.4,0,.3.1.6.1.9l1.2,20.6c.1,2.6-1.5,5.7-3.7,6.9l-21.8,12.6c-.4.2-.8.4-1.1.5,0-.3-.1-.6-.1-.9l-1.3-20.5c-.2-2.6,1.5-5.7,3.7-6.9ZM186.9,121.6l1.2,20.6c.1,2.6-1.5,5.7-3.7,6.9l-22.1,12.8c-.4.2-.7.4-1.1.4,0-.3-.1-.6-.1-.9l-1.3-20.5c-.2-2.5,1.5-5.7,3.7-6.9l22.4-12.9c.4-.2.7-.4,1.1-.4,0,.3.1.6.1.9ZM128,192.9l22.1-12.8c.4-.2.8-.4,1.1-.5,0,.3.1.6.1.9l1.4,20.4c.2,2.6-1.5,5.7-3.7,6.9l-21.9,12.6c-.4.2-.8.4-1.1.5,0-.3-.1-.6-.2-.9l-1.5-20.3c-.2-2.5,1.5-5.6,3.7-6.9ZM148.9,143.5l1.4,20.5c.2,2.5-1.5,5.6-3.7,6.9l-22.1,12.8c-.4.2-.8.4-1.1.5,0-.3-.1-.6-.2-.9l-1.5-20.3c-.2-2.5,1.5-5.6,3.7-6.9l22.4-12.9c.4-.2.8-.4,1.1-.5,0,.3.1.6.1.9ZM128.7,257.1l-1.5-20.3c-.2-2.6,1.5-5.7,3.7-6.9l21.8-12.6c.4-.2.7-.4,1.1-.4,0,.3.1.6.1.9l1.4,20.4c.2,2.6-1.5,5.7-3.7,6.9l-21.6,12.5c-.4.2-.8.4-1.1.5,0-.3-.1-.6-.2-.9ZM165.7,235.8l-1.3-20.5c-.2-2.5,1.5-5.7,3.7-6.9l21.8-12.6c.4-.2.7-.4,1.1-.4,0,.3.1.6.1.9l1.2,20.6c.1,2.5-1.5,5.7-3.7,6.9l-21.5,12.4c-.4.2-.7.4-1.1.5,0-.3-.1-.6-.1-.9ZM202.7,214.4l-1.1-20.7c-.1-2.5,1.5-5.7,3.8-6.9l21.8-12.6c.4-.2.7-.4,1-.4,0,.3.1.6.1.9l.9,20.8c.1,2.6-1.6,5.7-3.8,6.9l-21.5,12.4c-.4.2-.7.4-1.1.4,0-.3-.1-.6-.1-.9Z"/>
            <path class="st3" d="M240.1,205.8v-1.8c0,0-5-116.5-5-116.5-.5,0-1-.1-1.6-.1-1.8,0-3.6.4-4.9,1.2l-114,65.8c-1.2.7-1.4,1.2-1.4,1.3l8.7,113.5.5,4.3c.1-.2.5-.6,1.3-1.1l110.1-63.6c1.4-.8,3.3-1.3,5.4-1.3s.7,0,1.1,0v-1.9ZM223.7,164.9l-21.8,12.6c-.4.2-.7.4-1.1.4,0-.3-.1-.6-.1-.9l-1.1-20.7c-.1-2.6,1.5-5.7,3.8-6.9l22.1-12.8c.4-.2.7-.4,1-.4,0,.3.1.6.1.9l.9,20.8c.1,2.6-1.6,5.7-3.8,6.9ZM224.8,99.6l.9,20.8c.1,2.6-1.6,5.7-3.8,6.9l-22.2,12.8c-.4.2-.7.4-1.1.4,0-.3-.1-.6-.1-.9l-1.1-20.7c-.1-2.5,1.5-5.7,3.8-6.9l22.4-12.9c.4-.2.7-.4,1-.4,0,.3.1.6.1.9ZM165.7,171.2l22.1-12.8c.4-.2.7-.4,1.1-.4,0,.3.1.6.1.9l1.2,20.6c.1,2.6-1.5,5.7-3.7,6.9l-21.8,12.6c-.4.2-.8.4-1.1.5,0-.3-.1-.6-.1-.9l-1.3-20.5c-.2-2.6,1.5-5.7,3.7-6.9ZM186.9,121.6l1.2,20.6c.1,2.6-1.5,5.7-3.7,6.9l-22.1,12.8c-.4.2-.7.4-1.1.4,0-.3-.1-.6-.1-.9l-1.3-20.5c-.2-2.5,1.5-5.7,3.7-6.9l22.4-12.9c.4-.2.7-.4,1.1-.4,0,.3.1.6.1.9ZM128,192.9l22.1-12.8c.4-.2.8-.4,1.1-.5,0,.3.1.6.1.9l1.4,20.4c.2,2.6-1.5,5.7-3.7,6.9l-21.9,12.6c-.4.2-.8.4-1.1.5,0-.3-.1-.6-.2-.9l-1.5-20.3c-.2-2.5,1.5-5.6,3.7-6.9ZM148.9,143.5l1.4,20.5c.2,2.5-1.5,5.6-3.7,6.9l-22.1,12.8c-.4.2-.8.4-1.1.5,0-.3-.1-.6-.2-.9l-1.5-20.3c-.2-2.5,1.5-5.6,3.7-6.9l22.4-12.9c.4-.2.8-.4,1.1-.5,0,.3.1.6.1.9ZM128.7,257.1l-1.5-20.3c-.2-2.6,1.5-5.7,3.7-6.9l21.8-12.6c.4-.2.7-.4,1.1-.4,0,.3.1.6.1.9l1.4,20.4c.2,2.6-1.5,5.7-3.7,6.9l-21.6,12.5c-.4.2-.8.4-1.1.5,0-.3-.1-.6-.2-.9ZM165.7,235.8l-1.3-20.5c-.2-2.5,1.5-5.7,3.7-6.9l21.8-12.6c.4-.2.7-.4,1.1-.4,0,.3.1.6.1.9l1.2,20.6c.1,2.5-1.5,5.7-3.7,6.9l-21.5,12.4c-.4.2-.7.4-1.1.5,0-.3-.1-.6-.1-.9ZM202.7,214.4l-1.1-20.7c-.1-2.5,1.5-5.7,3.8-6.9l21.8-12.6c.4-.2.7-.4,1-.4,0,.3.1.6.1.9l.9,20.8c.1,2.6-1.6,5.7-3.8,6.9l-21.5,12.4c-.4.2-.7.4-1.1.4,0-.3-.1-.6-.1-.9Z"/>
            <path class="st7" d="M194.1,198.1c-.1-2.1-1.5-3.2-3.2-2.7,0,.3.1.6.1.9l1.2,20.6c.1,2.5-1.5,5.7-3.7,6.9l-21.5,12.4c-.4.2-.7.4-1.1.5.5,1.9,2.2,2.5,4.2,1.4l21.5-12.4c2.2-1.3,3.9-4.4,3.7-6.9l-1.2-20.6ZM229.6,139c0-2.1-1.4-3.2-3.2-2.7,0,.3.1.6.1.9l.9,20.8c.1,2.6-1.6,5.7-3.8,6.9l-21.8,12.6c-.4.2-.7.4-1.1.4.5,1.9,2.2,2.5,4.1,1.4l21.8-12.6c2.2-1.3,3.9-4.4,3.8-6.9l-.9-20.8ZM192,160.8c-.1-2.1-1.5-3.2-3.2-2.7,0,.3.1.6.1.9l1.2,20.6c.1,2.6-1.5,5.7-3.7,6.9l-21.8,12.6c-.4.2-.8.4-1.1.5.5,1.9,2.2,2.5,4.2,1.4l21.8-12.6c2.2-1.3,3.9-4.4,3.7-6.9l-1.2-20.6ZM227.9,101.5c0-2.1-1.4-3.2-3.2-2.7,0,.3.1.6.1.9l.9,20.8c.1,2.6-1.6,5.7-3.8,6.9l-22.2,12.8c-.4.2-.7.4-1.1.4.5,1.9,2.2,2.5,4.1,1.4l22.2-12.8c2.2-1.3,3.9-4.4,3.8-6.9l-.9-20.8ZM189.9,123.4c-.1-2.1-1.5-3.2-3.2-2.7,0,.3.1.6.1.9l1.2,20.6c.1,2.6-1.5,5.7-3.7,6.9l-22.1,12.8c-.4.2-.7.4-1.1.4.5,1.9,2.2,2.5,4.2,1.4l22.1-12.8c2.2-1.3,3.9-4.4,3.7-6.9l-1.2-20.6ZM152,145.4c-.1-2.1-1.5-3.2-3.2-2.8,0,.3.1.6.1.9l1.4,20.5c.2,2.5-1.5,5.6-3.7,6.9l-22.1,12.8c-.4.2-.8.4-1.1.5.5,1.9,2.3,2.5,4.2,1.4l22.1-12.8c2.2-1.3,3.9-4.4,3.7-6.9l-1.4-20.4ZM231.3,176.6c-.1-2.1-1.4-3.2-3.2-2.7,0,.3.1.6.1.9l.9,20.8c.1,2.6-1.6,5.7-3.8,6.9l-21.5,12.4c-.4.2-.7.4-1.1.4.5,1.9,2.2,2.5,4.1,1.4l21.5-12.4c2.2-1.3,3.9-4.4,3.8-6.9l-.9-20.8ZM156.9,219.6c-.1-2.1-1.5-3.2-3.2-2.7,0,.3.1.6.1.9l1.4,20.4c.2,2.6-1.5,5.7-3.7,6.9l-21.6,12.5c-.4.2-.8.4-1.1.5.5,1.9,2.3,2.5,4.2,1.4l21.6-12.5c2.2-1.3,3.9-4.4,3.7-6.9l-1.4-20.4ZM154.4,182.5c-.1-2.1-1.5-3.2-3.2-2.8,0,.3.1.6.1.9l1.4,20.4c.2,2.6-1.5,5.7-3.7,6.9l-21.9,12.6c-.4.2-.8.4-1.1.5.5,1.9,2.3,2.5,4.2,1.4l21.9-12.6c2.2-1.3,3.9-4.4,3.7-6.9l-1.4-20.4Z"/>
          </g>
          <g>
            <path class="st7" d="M383.6,200l-143.8-110.6c-1.2-.9-2.9-1.6-4.8-1.8l5,118.2v2c2,.2,3.8.6,5.3,1.7l128.1,88,11.5-95.3h0c0-.7-.5-1.5-1.4-2.2ZM327.8,220.4c0,.1,0,.2,0,.4-.1,0-.3-.2-.4-.3l-30.6-22c-2.1-1.5-3.7-4.8-3.6-7.3l.5-18.3c0,0,0-.1,0-.2,0,0,.2.1.2.2l31.7,23.5c2.1,1.5,3.6,4.8,3.4,7.4l-1.2,16.7ZM372.1,252.6c-.2-.1-.4-.2-.6-.4l-30.3-21.8c-2.1-1.5-3.6-4.8-3.4-7.3l1.3-16.4c0-.1,0-.2,0-.3.1,0,.3.2.4.3l31.2,23.1c2.1,1.5,3.5,4.8,3.2,7.4l-1.7,15.1c0,.1,0,.3,0,.4ZM341.9,174.6l32.3,24.7c2,1.6,3.4,4.9,3.1,7.4l-1.7,15.1c0,.1,0,.2,0,.4-.2-.1-.4-.2-.6-.4l-31.4-23.4c-2-1.5-3.5-4.8-3.3-7.4l1.3-16.4c0,0,0-.2,0-.2.1,0,.3.2.4.3ZM294.7,138.5l33.2,25.4c2,1.6,3.5,4.9,3.3,7.4l-1.2,16.6c0,0,0,.2,0,.3-.1,0-.3-.2-.4-.3l-32-23.9c-2-1.5-3.7-4.8-3.6-7.4l.5-18.2s0,0,0-.1c0,0,.1,0,.2.1ZM283.1,188.4c0,0,0,.2,0,.2,0,0-.2-.1-.2-.2l-30.9-22.2c-2.1-1.5-3.8-4.8-3.9-7.3l-.7-20.4,32.4,24c2.1,1.5,3.7,4.8,3.6,7.4l-.3,18.5ZM280.5,127.7c2,1.5,3.6,4.9,3.6,7.4l-.3,18.5h0c0,.1-.1,0-.2,0l-32.9-24.5c-2.1-1.5-3.8-4.8-3.9-7.4l-.7-20.4,34.4,26.3ZM282.2,223.3l-28.9-20.1c-2.1-1.5-3.9-4.7-4-7.3l-.7-20.4h0c0,0,0,0,0,0l30.5,21.8c2.1,1.5,3.7,4.8,3.7,7.3l-.3,18.6c0,.1,0,.2,0,.3,0,0-.2-.1-.3-.2ZM325,252.9l-29.1-20.2c-2.1-1.5-3.7-4.7-3.7-7.3l.5-18.3c0,0,0-.2,0-.3,0,0,.2.1.3.2l30.3,21.6c2.1,1.5,3.6,4.8,3.4,7.3l-1.2,16.7c0,.1,0,.3,0,.4-.2,0-.3-.2-.5-.3ZM367.9,282.7l-29.2-20.2c-2.1-1.5-3.6-4.7-3.4-7.2l1.2-16.5c0-.1,0-.3,0-.4.2,0,.3.2.5.3l30.1,21.5c2.1,1.5,3.5,4.7,3.2,7.3l-1.7,15.1c0,.2,0,.3,0,.5-.2-.1-.4-.2-.7-.4Z"/>
            <path class="st2" d="M383.6,200l-143.8-110.6c-1.2-.9-2.9-1.6-4.8-1.8l5,118.2v2c2,.2,3.8.6,5.3,1.7l128.1,88,11.5-95.3h0c0-.7-.5-1.5-1.4-2.2ZM327.8,220.4c0,.1,0,.2,0,.4-.1,0-.3-.2-.4-.3l-30.6-22c-2.1-1.5-3.7-4.8-3.6-7.3l.5-18.3c0,0,0-.1,0-.2,0,0,.2.1.2.2l31.7,23.5c2.1,1.5,3.6,4.8,3.4,7.4l-1.2,16.7ZM372.1,252.6c-.2-.1-.4-.2-.6-.4l-30.3-21.8c-2.1-1.5-3.6-4.8-3.4-7.3l1.3-16.4c0-.1,0-.2,0-.3.1,0,.3.2.4.3l31.2,23.1c2.1,1.5,3.5,4.8,3.2,7.4l-1.7,15.1c0,.1,0,.3,0,.4ZM341.9,174.6l32.3,24.7c2,1.6,3.4,4.9,3.1,7.4l-1.7,15.1c0,.1,0,.2,0,.4-.2-.1-.4-.2-.6-.4l-31.4-23.4c-2-1.5-3.5-4.8-3.3-7.4l1.3-16.4c0,0,0-.2,0-.2.1,0,.3.2.4.3ZM294.7,138.5l33.2,25.4c2,1.6,3.5,4.9,3.3,7.4l-1.2,16.6c0,0,0,.2,0,.3-.1,0-.3-.2-.4-.3l-32-23.9c-2-1.5-3.7-4.8-3.6-7.4l.5-18.2s0,0,0-.1c0,0,.1,0,.2.1ZM283.1,188.4c0,0,0,.2,0,.2,0,0-.2-.1-.2-.2l-30.9-22.2c-2.1-1.5-3.8-4.8-3.9-7.3l-.7-20.4,32.4,24c2.1,1.5,3.7,4.8,3.6,7.4l-.3,18.5ZM280.5,127.7c2,1.5,3.6,4.9,3.6,7.4l-.3,18.5h0c0,.1-.1,0-.2,0l-32.9-24.5c-2.1-1.5-3.8-4.8-3.9-7.4l-.7-20.4,34.4,26.3ZM282.2,223.3l-28.9-20.1c-2.1-1.5-3.9-4.7-4-7.3l-.7-20.4h0c0,0,0,0,0,0l30.5,21.8c2.1,1.5,3.7,4.8,3.7,7.3l-.3,18.6c0,.1,0,.2,0,.3,0,0-.2-.1-.3-.2ZM325,252.9l-29.1-20.2c-2.1-1.5-3.7-4.7-3.7-7.3l.5-18.3c0,0,0-.2,0-.3,0,0,.2.1.3.2l30.3,21.6c2.1,1.5,3.6,4.8,3.4,7.3l-1.2,16.7c0,.1,0,.3,0,.4-.2,0-.3-.2-.5-.3ZM367.9,282.7l-29.2-20.2c-2.1-1.5-3.6-4.7-3.4-7.2l1.2-16.5c0-.1,0-.3,0-.4.2,0,.3.2.5.3l30.1,21.5c2.1,1.5,3.5,4.7,3.2,7.3l-1.7,15.1c0,.2,0,.3,0,.5-.2-.1-.4-.2-.7-.4Z"/>
            <path class="st7" d="M250.7,129.2c-2.1-1.5-3.8-4.8-3.9-7.4l-.7-20.4h0c-2-1.6-3.6-.8-3.5,1.8l.7,20.5c0,2.6,1.8,5.9,3.9,7.4l32.9,24.5c2,1.5,3.7.7,3.8-1.7,0,0-.1,0-.2-.1l-32.9-24.5ZM252,166.2c-2.1-1.5-3.8-4.8-3.9-7.3l-.7-20.4h0c-2.1-1.5-3.6-.7-3.6,1.8l.7,20.4c0,2.6,1.8,5.8,3.9,7.3l30.9,22.2c2,1.5,3.7.7,3.8-1.7,0,0-.2-.1-.2-.2l-30.9-22.2ZM295.9,232.8c-2.1-1.5-3.7-4.7-3.7-7.3l.5-18.3c0,0,0-.2,0-.3-2-1.2-3.5-.3-3.6,2.1l-.5,18.3c0,2.6,1.6,5.8,3.7,7.3l29.1,20.2c2,1.4,3.7.7,4.1-1.6-.2,0-.3-.2-.5-.3l-29.1-20.2ZM253.3,203.2c-2.1-1.5-3.9-4.7-4-7.3l-.7-20.4h0c-2.1-1.6-3.7-.7-3.6,1.9l.7,20.4c0,2.6,1.8,5.8,3.9,7.3l29,20.1c2,1.4,3.7.6,3.9-1.7,0,0-.2-.1-.3-.2l-28.9-20.1ZM375,221.8l-31.4-23.4c-2-1.5-3.5-4.8-3.3-7.4l1.3-16.4c0,0,0-.2,0-.2-1.8-1.1-3.4-.3-3.6,2.1l-1.3,16.4c-.2,2.6,1.3,5.9,3.4,7.4l31.4,23.4c2,1.5,3.8.8,4.2-1.5-.2-.1-.4-.2-.6-.4ZM296.8,198.5c-2.1-1.5-3.7-4.8-3.6-7.3l.5-18.3c0,0,0-.1,0-.2-1.9-1.3-3.5-.4-3.6,2l-.5,18.3c0,2.6,1.6,5.8,3.6,7.3l30.6,22c2,1.4,3.7.7,4-1.6-.1,0-.3-.2-.4-.3l-30.6-22ZM341.1,230.4c-2.1-1.5-3.6-4.8-3.4-7.3l1.3-16.4c0-.1,0-.2,0-.3-1.9-1.1-3.5-.2-3.6,2.2l-1.3,16.4c-.2,2.6,1.3,5.8,3.4,7.3l30.3,21.8c2,1.4,3.8.7,4.2-1.5-.2-.1-.4-.2-.6-.4l-30.3-21.8ZM338.7,262.5c-2.1-1.5-3.6-4.7-3.4-7.2l1.2-16.5c0-.1,0-.3,0-.4-1.9-1-3.5-.1-3.6,2.2l-1.3,16.5c-.2,2.6,1.4,5.8,3.5,7.3l29.2,20.2c2,1.4,3.8.7,4.2-1.5-.2-.1-.4-.2-.7-.4l-29.2-20.2ZM297.6,164.1c-2-1.5-3.7-4.8-3.6-7.4l.5-18.2s0,0,0-.1c-1.9-1.4-3.5-.5-3.6,2l-.5,18.2c0,2.6,1.5,5.9,3.6,7.4l32,23.9c2,1.5,3.7.8,4-1.6-.1,0-.3-.2-.4-.3l-32-23.9Z"/>
            <path class="st0" d="M250.7,129.2c-2.1-1.5-3.8-4.8-3.9-7.4l-.7-20.4h0c-2-1.6-3.6-.8-3.5,1.8l.7,20.5c0,2.6,1.8,5.9,3.9,7.4l32.9,24.5c2,1.5,3.7.7,3.8-1.7,0,0-.1,0-.2-.1l-32.9-24.5ZM252,166.2c-2.1-1.5-3.8-4.8-3.9-7.3l-.7-20.4h0c-2.1-1.5-3.6-.7-3.6,1.8l.7,20.4c0,2.6,1.8,5.8,3.9,7.3l30.9,22.2c2,1.5,3.7.7,3.8-1.7,0,0-.2-.1-.2-.2l-30.9-22.2ZM295.9,232.8c-2.1-1.5-3.7-4.7-3.7-7.3l.5-18.3c0,0,0-.2,0-.3-2-1.2-3.5-.3-3.6,2.1l-.5,18.3c0,2.6,1.6,5.8,3.7,7.3l29.1,20.2c2,1.4,3.7.7,4.1-1.6-.2,0-.3-.2-.5-.3l-29.1-20.2ZM253.3,203.2c-2.1-1.5-3.9-4.7-4-7.3l-.7-20.4h0c-2.1-1.6-3.7-.7-3.6,1.9l.7,20.4c0,2.6,1.8,5.8,3.9,7.3l29,20.1c2,1.4,3.7.6,3.9-1.7,0,0-.2-.1-.3-.2l-28.9-20.1ZM375,221.8l-31.4-23.4c-2-1.5-3.5-4.8-3.3-7.4l1.3-16.4c0,0,0-.2,0-.2-1.8-1.1-3.4-.3-3.6,2.1l-1.3,16.4c-.2,2.6,1.3,5.9,3.4,7.4l31.4,23.4c2,1.5,3.8.8,4.2-1.5-.2-.1-.4-.2-.6-.4ZM296.8,198.5c-2.1-1.5-3.7-4.8-3.6-7.3l.5-18.3c0,0,0-.1,0-.2-1.9-1.3-3.5-.4-3.6,2l-.5,18.3c0,2.6,1.6,5.8,3.6,7.3l30.6,22c2,1.4,3.7.7,4-1.6-.1,0-.3-.2-.4-.3l-30.6-22ZM341.1,230.4c-2.1-1.5-3.6-4.8-3.4-7.3l1.3-16.4c0-.1,0-.2,0-.3-1.9-1.1-3.5-.2-3.6,2.2l-1.3,16.4c-.2,2.6,1.3,5.8,3.4,7.3l30.3,21.8c2,1.4,3.8.7,4.2-1.5-.2-.1-.4-.2-.6-.4l-30.3-21.8ZM338.7,262.5c-2.1-1.5-3.6-4.7-3.4-7.2l1.2-16.5c0-.1,0-.3,0-.4-1.9-1-3.5-.1-3.6,2.2l-1.3,16.5c-.2,2.6,1.4,5.8,3.5,7.3l29.2,20.2c2,1.4,3.8.7,4.2-1.5-.2-.1-.4-.2-.7-.4l-29.2-20.2ZM297.6,164.1c-2-1.5-3.7-4.8-3.6-7.4l.5-18.2s0,0,0-.1c-1.9-1.4-3.5-.5-3.6,2l-.5,18.2c0,2.6,1.5,5.9,3.6,7.4l32,23.9c2,1.5,3.7.8,4-1.6-.1,0-.3-.2-.4-.3l-32-23.9Z"/>
          </g>
          <path class="st7" d="M385.9,197.1l-143.8-110.6c-4.1-3.1-10.9-3.6-15.3-1l-114,65.8c-2.2,1.3-3.3,2.9-3.3,4.6h3.7c0-.1.3-.7,1.4-1.3l114-65.8c1.3-.7,3-1.2,4.9-1.2s4.8.7,6.4,1.9l143.8,110.6c.9.7,1.4,1.5,1.4,2.2h3.7c0-1.8-.9-3.6-2.8-5.1Z"/>
          <path class="st5" d="M385.9,197.1l-143.8-110.6c-4.1-3.1-10.9-3.6-15.3-1l-114,65.8c-2.2,1.3-3.3,2.9-3.3,4.6h3.7c0-.1.3-.7,1.4-1.3l114-65.8c1.3-.7,3-1.2,4.9-1.2s4.8.7,6.4,1.9l143.8,110.6c.9.7,1.4,1.5,1.4,2.2h3.7c0-1.8-.9-3.6-2.8-5.1Z"/>
        </g>
      </g>
      <g>
        <g>
          <path class="st7" d="M285.2,255.9l-172.3-95.6c-2-1.1-3.1-2.6-3.3-4l9.1,117.6s0,0,0,.1c.2,1.5,1.3,2.9,3.5,4l152.4,73.6c2.4,1.2,5.5,1.6,8.6,1.5l10.4-95.3c-3,0-6.1-.5-8.4-1.8ZM237.8,234.6l45,24.8c2.2,1.2,3.8,4.3,3.6,6.8l-1.8,18.2c0,.4-.1.7-.2,1-.3,0-.6-.2-.8-.3l-43.3-23c-2.3-1.2-4-4.2-3.9-6.8l.8-20.1c0-.3,0-.6.1-.9.2,0,.4.2.6.3ZM225.2,289.2l-41.3-21c-2.3-1.2-4.2-4.2-4.2-6.7l-.5-22.1c0-.3,0-.6,0-.9.1,0,.3.1.4.2l43,22.7c2.3,1.2,4,4.2,3.9,6.8l-.6,20.3c0,.4,0,.7-.1,1-.2,0-.4-.2-.6-.3ZM283.1,298.3l-1.8,18.2c0,.4-.1.7-.2,1.1-.3,0-.6-.2-.9-.3l-41.3-21c-2.3-1.2-4-4.2-3.9-6.7l.8-20.1c0-.3,0-.7.1-.9.2,0,.4.2.6.3l43,22.8c2.3,1.2,3.9,4.2,3.6,6.8ZM178.9,202.1l44.9,24.8c2.2,1.2,4,4.3,3.9,6.9l-.6,20.3c0,.3,0,.6-.1.9-.2,0-.4-.2-.6-.3l-43.2-23c-2.3-1.2-4.1-4.2-4.2-6.8l-.5-22.1c0-.3,0-.6,0-.8.1,0,.3.1.4.2ZM170.2,261.2l-41.3-21c-2.3-1.2-4.3-4.2-4.5-6.7l-1.8-24.2c0-.3,0-.5,0-.8,0,0,.2,0,.2.1l43,22.7c2.3,1.2,4.1,4.2,4.2,6.8l.6,22.3c0,.3,0,.7,0,.9-.1,0-.3-.1-.4-.2ZM120,169.7l44.8,24.7c2.2,1.2,4.1,4.3,4.2,6.9l.6,22.3c0,.3,0,.6,0,.9-.1,0-.3-.1-.4-.2l-43.2-23c-2.3-1.2-4.2-4.2-4.4-6.8l-1.8-24.2c0-.2,0-.5,0-.7,0,0,.1,0,.2.1ZM171,292.9l-39.6-19.3c-2.3-1.1-4.3-4.1-4.5-6.6l-1.4-18.6c0-.3,0-.6,0-.9,0,0,.2,0,.3.1l41,20.7c2.3,1.1,4.2,4.2,4.3,6.7l.5,17.1c0,.4,0,.7,0,1-.1,0-.3-.1-.4-.2ZM224.2,318.8l-39.6-19.3c-2.3-1.1-4.2-4.1-4.3-6.7l-.4-16.9c0-.3,0-.7,0-1,.1,0,.3.1.5.2l41,20.7c2.3,1.1,4.1,4.2,4,6.7l-.5,15.3c0,.4,0,.7-.2,1.1-.2,0-.4-.1-.6-.2ZM277.4,344.6l-39.6-19.3c-2.3-1.1-4.1-4.1-4-6.6l.6-15.2c0-.4,0-.7.2-1,.2,0,.4.1.6.3l41,20.7c2.3,1.2,3.9,4.1,3.7,6.7l-1.4,13.6c0,.4-.1.8-.3,1.1-.3,0-.6-.2-.9-.3Z"/>
          <path class="st2" d="M285.2,255.9l-172.3-95.6c-2-1.1-3.1-2.6-3.3-4l9.1,117.6s0,0,0,.1c.2,1.5,1.3,2.9,3.5,4l152.4,73.6c2.4,1.2,5.5,1.6,8.6,1.5l10.4-95.3c-3,0-6.1-.5-8.4-1.8ZM237.8,234.6l45,24.8c2.2,1.2,3.8,4.3,3.6,6.8l-1.8,18.2c0,.4-.1.7-.2,1-.3,0-.6-.2-.8-.3l-43.3-23c-2.3-1.2-4-4.2-3.9-6.8l.8-20.1c0-.3,0-.6.1-.9.2,0,.4.2.6.3ZM225.2,289.2l-41.3-21c-2.3-1.2-4.2-4.2-4.2-6.7l-.5-22.1c0-.3,0-.6,0-.9.1,0,.3.1.4.2l43,22.7c2.3,1.2,4,4.2,3.9,6.8l-.6,20.3c0,.4,0,.7-.1,1-.2,0-.4-.2-.6-.3ZM283.1,298.3l-1.8,18.2c0,.4-.1.7-.2,1.1-.3,0-.6-.2-.9-.3l-41.3-21c-2.3-1.2-4-4.2-3.9-6.7l.8-20.1c0-.3,0-.7.1-.9.2,0,.4.2.6.3l43,22.8c2.3,1.2,3.9,4.2,3.6,6.8ZM178.9,202.1l44.9,24.8c2.2,1.2,4,4.3,3.9,6.9l-.6,20.3c0,.3,0,.6-.1.9-.2,0-.4-.2-.6-.3l-43.2-23c-2.3-1.2-4.1-4.2-4.2-6.8l-.5-22.1c0-.3,0-.6,0-.8.1,0,.3.1.4.2ZM170.2,261.2l-41.3-21c-2.3-1.2-4.3-4.2-4.5-6.7l-1.8-24.2c0-.3,0-.5,0-.8,0,0,.2,0,.2.1l43,22.7c2.3,1.2,4.1,4.2,4.2,6.8l.6,22.3c0,.3,0,.7,0,.9-.1,0-.3-.1-.4-.2ZM120,169.7l44.8,24.7c2.2,1.2,4.1,4.3,4.2,6.9l.6,22.3c0,.3,0,.6,0,.9-.1,0-.3-.1-.4-.2l-43.2-23c-2.3-1.2-4.2-4.2-4.4-6.8l-1.8-24.2c0-.2,0-.5,0-.7,0,0,.1,0,.2.1ZM171,292.9l-39.6-19.3c-2.3-1.1-4.3-4.1-4.5-6.6l-1.4-18.6c0-.3,0-.6,0-.9,0,0,.2,0,.3.1l41,20.7c2.3,1.1,4.2,4.2,4.3,6.7l.5,17.1c0,.4,0,.7,0,1-.1,0-.3-.1-.4-.2ZM224.2,318.8l-39.6-19.3c-2.3-1.1-4.2-4.1-4.3-6.7l-.4-16.9c0-.3,0-.7,0-1,.1,0,.3.1.5.2l41,20.7c2.3,1.1,4.1,4.2,4,6.7l-.5,15.3c0,.4,0,.7-.2,1.1-.2,0-.4-.1-.6-.2ZM277.4,344.6l-39.6-19.3c-2.3-1.1-4.1-4.1-4-6.6l.6-15.2c0-.4,0-.7.2-1,.2,0,.4.1.6.3l41,20.7c2.3,1.2,3.9,4.1,3.7,6.7l-1.4,13.6c0,.4-.1.8-.3,1.1-.3,0-.6-.2-.9-.3Z"/>
          <path class="st7" d="M277.4,344.6l-39.6-19.3c-2.3-1.1-4.1-4.1-4-6.6l.6-15.2c0-.4,0-.7.2-1-2-.7-3.6.5-3.7,2.8l-.6,15.2c0,2.6,1.7,5.5,4,6.6l39.5,19.3c1.9.9,3.7.3,4.4-1.5-.3,0-.6-.2-.9-.3ZM283.5,285.1l-43.3-23c-2.3-1.2-4-4.2-3.9-6.8l.8-20.1c0-.3,0-.6.1-.9-2-.7-3.5.3-3.6,2.7l-.8,20.1c-.1,2.5,1.6,5.6,3.9,6.8l43.3,23c1.9,1,3.7.4,4.3-1.4-.3,0-.6-.2-.8-.3ZM280.2,317.2l-41.3-21c-2.3-1.2-4-4.2-3.9-6.7l.8-20.1c0-.3,0-.7.1-.9-2-.7-3.6.4-3.6,2.7l-.8,20c-.1,2.6,1.7,5.6,3.9,6.7l41.3,21c1.9,1,3.7.3,4.3-1.5-.3,0-.6-.2-.9-.3ZM225.2,289.2l-41.3-21c-2.3-1.2-4.2-4.2-4.2-6.7l-.5-22.1c0-.3,0-.6,0-.9-2.1-.8-3.6.3-3.6,2.7l.5,22.1c0,2.6,1.9,5.6,4.2,6.7l41.3,21c2,1,3.6.3,4.1-1.5-.2,0-.4-.2-.6-.3ZM226.3,254.7l-43.2-23c-2.3-1.2-4.1-4.2-4.2-6.8l-.5-22.1c0-.3,0-.6,0-.8-2-.9-3.6.2-3.6,2.6l.5,22.1c0,2.6,1.9,5.6,4.2,6.8l43.2,23c2,1,3.6.4,4.1-1.5-.2,0-.4-.2-.6-.3ZM170.2,261.2l-41.3-21c-2.3-1.2-4.3-4.2-4.5-6.7l-1.8-24.2c0-.3,0-.5,0-.8-2.1-1-3.7.1-3.5,2.6l1.8,24.2c.2,2.5,2.2,5.5,4.5,6.7l41.3,21c2,1,3.6.3,3.9-1.6-.1,0-.3-.1-.4-.2ZM224.2,318.8l-39.6-19.3c-2.3-1.1-4.2-4.1-4.3-6.7l-.4-16.9c0-.3,0-.7,0-1-2.1-.8-3.6.4-3.6,2.7l.4,16.9c0,2.6,2,5.5,4.3,6.7l39.6,19.3c1.9,1,3.6.3,4.1-1.5-.2,0-.4-.1-.6-.2ZM169.2,224.3l-43.2-23c-2.3-1.2-4.2-4.2-4.4-6.8l-1.8-24.2c0-.2,0-.5,0-.7-2.1-1.1-3.7,0-3.5,2.5l1.8,24.2c.2,2.6,2.2,5.6,4.4,6.8l43.2,23c2,1.1,3.6.3,3.9-1.6-.1,0-.3-.1-.4-.2ZM171,292.9l-39.6-19.3c-2.3-1.1-4.3-4.1-4.5-6.6l-1.4-18.6c0-.3,0-.6,0-.9-2.1-.9-3.7.2-3.5,2.6l1.4,18.6c.2,2.5,2.2,5.5,4.5,6.6l39.6,19.3c2,1,3.6.2,3.9-1.6-.1,0-.3-.1-.4-.2Z"/>
          <path class="st0" d="M277.4,344.6l-39.6-19.3c-2.3-1.1-4.1-4.1-4-6.6l.6-15.2c0-.4,0-.7.2-1-2-.7-3.6.5-3.7,2.8l-.6,15.2c0,2.6,1.7,5.5,4,6.6l39.5,19.3c1.9.9,3.7.3,4.4-1.5-.3,0-.6-.2-.9-.3ZM283.5,285.1l-43.3-23c-2.3-1.2-4-4.2-3.9-6.8l.8-20.1c0-.3,0-.6.1-.9-2-.7-3.5.3-3.6,2.7l-.8,20.1c-.1,2.5,1.6,5.6,3.9,6.8l43.3,23c1.9,1,3.7.4,4.3-1.4-.3,0-.6-.2-.8-.3ZM280.2,317.2l-41.3-21c-2.3-1.2-4-4.2-3.9-6.7l.8-20.1c0-.3,0-.7.1-.9-2-.7-3.6.4-3.6,2.7l-.8,20c-.1,2.6,1.7,5.6,3.9,6.7l41.3,21c1.9,1,3.7.3,4.3-1.5-.3,0-.6-.2-.9-.3ZM225.2,289.2l-41.3-21c-2.3-1.2-4.2-4.2-4.2-6.7l-.5-22.1c0-.3,0-.6,0-.9-2.1-.8-3.6.3-3.6,2.7l.5,22.1c0,2.6,1.9,5.6,4.2,6.7l41.3,21c2,1,3.6.3,4.1-1.5-.2,0-.4-.2-.6-.3ZM226.3,254.7l-43.2-23c-2.3-1.2-4.1-4.2-4.2-6.8l-.5-22.1c0-.3,0-.6,0-.8-2-.9-3.6.2-3.6,2.6l.5,22.1c0,2.6,1.9,5.6,4.2,6.8l43.2,23c2,1,3.6.4,4.1-1.5-.2,0-.4-.2-.6-.3ZM170.2,261.2l-41.3-21c-2.3-1.2-4.3-4.2-4.5-6.7l-1.8-24.2c0-.3,0-.5,0-.8-2.1-1-3.7.1-3.5,2.6l1.8,24.2c.2,2.5,2.2,5.5,4.5,6.7l41.3,21c2,1,3.6.3,3.9-1.6-.1,0-.3-.1-.4-.2ZM224.2,318.8l-39.6-19.3c-2.3-1.1-4.2-4.1-4.3-6.7l-.4-16.9c0-.3,0-.7,0-1-2.1-.8-3.6.4-3.6,2.7l.4,16.9c0,2.6,2,5.5,4.3,6.7l39.6,19.3c1.9,1,3.6.3,4.1-1.5-.2,0-.4-.1-.6-.2ZM169.2,224.3l-43.2-23c-2.3-1.2-4.2-4.2-4.4-6.8l-1.8-24.2c0-.2,0-.5,0-.7-2.1-1.1-3.7,0-3.5,2.5l1.8,24.2c.2,2.6,2.2,5.6,4.4,6.8l43.2,23c2,1.1,3.6.3,3.9-1.6-.1,0-.3-.1-.4-.2ZM171,292.9l-39.6-19.3c-2.3-1.1-4.3-4.1-4.5-6.6l-1.4-18.6c0-.3,0-.6,0-.9-2.1-.9-3.7.2-3.5,2.6l1.4,18.6c.2,2.5,2.2,5.5,4.5,6.6l39.6,19.3c2,1,3.6.2,3.9-1.6-.1,0-.3-.1-.4-.2Z"/>
        </g>
        <g>
          <path class="st7" d="M385.2,207.3l-83.9,48.5c-2.1,1.2-4.9,1.9-7.7,2l-10.4,95.3c2.8-.1,5.6-.8,7.7-2.1l82.8-47.8c2-1.2,3.2-2.8,3.4-4.4v-.2s11.6-95.5,11.6-95.5c-.3,1.6-1.5,3.1-3.4,4.3ZM374.8,248.3l-2.2,18.2c-.3,2.5-2.3,5.6-4.6,6.9l-30.1,17.4c-.3.2-.6.3-.9.4,0-.3,0-.6,0-.9l1.9-17.9c.3-2.5,2.3-5.6,4.5-6.9l30.5-17.7c.3-.2.6-.3.9-.4,0,.3,0,.6,0,.9ZM330.6,273.8l-2,18c-.3,2.5-2.3,5.6-4.5,6.9l-30.6,17.6c-.3.2-.6.3-.9.4,0-.3,0-.6,0-.9l2-18c.3-2.5,2.3-5.6,4.5-6.9l30.5-17.6c.3-.2.6-.3.9-.4,0,.3,0,.6,0,.9ZM378.7,216.3l-2.2,18.2c-.3,2.5-2.3,5.6-4.6,6.9l-30.6,17.6c-.3.2-.6.3-.9.4,0-.3,0-.6,0-.9l2.2-18.2c.3-2.5,2.3-5.6,4.6-6.9l30.6-17.6c.3-.2.6-.3.9-.4,0,.3,0,.6,0,.9ZM334.4,241.9l-2.2,18.2c-.3,2.5-2.4,5.6-4.6,6.9l-30.5,17.6c-.3.2-.6.3-.9.4,0-.3,0-.6,0-.9l2-18c.3-2.5,2.3-5.6,4.5-6.9l30.9-17.8c.3-.2.6-.3.9-.4,0,.3,0,.6,0,.9ZM289.7,343.1l1.5-13.5c.3-2.5,2.3-5.6,4.5-6.9l30.6-17.7c.3-.2.6-.3.9-.4,0,.3,0,.6,0,.9l-1.3,13.3c-.3,2.5-2.3,5.6-4.5,6.9l-30.8,17.8c-.3.2-.6.3-.9.4,0-.3,0-.6,0-.9ZM334,317.5l1.4-13.4c.3-2.5,2.3-5.6,4.5-6.9l30.3-17.5c.3-.2.6-.3.9-.4,0,.3,0,.6,0,.9l-1.6,13.6c-.3,2.5-2.3,5.6-4.6,6.9l-29.9,17.3c-.3.2-.6.3-.9.4,0-.3,0-.6,0-.9Z"/>
          <path class="st3" d="M385.2,207.3l-83.9,48.5c-2.1,1.2-4.9,1.9-7.7,2l-10.4,95.3c2.8-.1,5.6-.8,7.7-2.1l82.8-47.8c2-1.2,3.2-2.8,3.4-4.4v-.2s11.6-95.5,11.6-95.5c-.3,1.6-1.5,3.1-3.4,4.3ZM374.8,248.3l-2.2,18.2c-.3,2.5-2.3,5.6-4.6,6.9l-30.1,17.4c-.3.2-.6.3-.9.4,0-.3,0-.6,0-.9l1.9-17.9c.3-2.5,2.3-5.6,4.5-6.9l30.5-17.7c.3-.2.6-.3.9-.4,0,.3,0,.6,0,.9ZM330.6,273.8l-2,18c-.3,2.5-2.3,5.6-4.5,6.9l-30.6,17.6c-.3.2-.6.3-.9.4,0-.3,0-.6,0-.9l2-18c.3-2.5,2.3-5.6,4.5-6.9l30.5-17.6c.3-.2.6-.3.9-.4,0,.3,0,.6,0,.9ZM378.7,216.3l-2.2,18.2c-.3,2.5-2.3,5.6-4.6,6.9l-30.6,17.6c-.3.2-.6.3-.9.4,0-.3,0-.6,0-.9l2.2-18.2c.3-2.5,2.3-5.6,4.6-6.9l30.6-17.6c.3-.2.6-.3.9-.4,0,.3,0,.6,0,.9ZM334.4,241.9l-2.2,18.2c-.3,2.5-2.4,5.6-4.6,6.9l-30.5,17.6c-.3.2-.6.3-.9.4,0-.3,0-.6,0-.9l2-18c.3-2.5,2.3-5.6,4.5-6.9l30.9-17.8c.3-.2.6-.3.9-.4,0,.3,0,.6,0,.9ZM289.7,343.1l1.5-13.5c.3-2.5,2.3-5.6,4.5-6.9l30.6-17.7c.3-.2.6-.3.9-.4,0,.3,0,.6,0,.9l-1.3,13.3c-.3,2.5-2.3,5.6-4.5,6.9l-30.8,17.8c-.3.2-.6.3-.9.4,0-.3,0-.6,0-.9ZM334,317.5l1.4-13.4c.3-2.5,2.3-5.6,4.5-6.9l30.3-17.5c.3-.2.6-.3.9-.4,0,.3,0,.6,0,.9l-1.6,13.6c-.3,2.5-2.3,5.6-4.6,6.9l-29.9,17.3c-.3.2-.6.3-.9.4,0-.3,0-.6,0-.9Z"/>
          <path class="st7" d="M334.5,241c0,.3,0,.6,0,.9l-2.2,18.2c-.3,2.5-2.4,5.6-4.6,6.9l-30.5,17.6c-.3.2-.6.3-.9.4.2,1.8,1.6,2.5,3.5,1.4l30.5-17.6c2.2-1.3,4.3-4.4,4.6-6.9l2.2-18.2c.3-2.2-.9-3.2-2.6-2.7ZM378.7,215.4c0,.3,0,.6,0,.9l-2.2,18.2c-.3,2.5-2.3,5.6-4.6,6.9l-30.6,17.6c-.3.2-.6.3-.9.4.1,1.8,1.6,2.5,3.5,1.4l30.6-17.6c2.2-1.3,4.2-4.4,4.6-6.9l2.2-18.2c.3-2.2-.9-3.2-2.6-2.7ZM330.7,272.9c0,.3,0,.6,0,.9l-2,18c-.3,2.5-2.3,5.6-4.5,6.9l-30.6,17.6c-.3.2-.6.3-.9.4.2,1.8,1.6,2.5,3.5,1.4l30.6-17.6c2.2-1.3,4.2-4.4,4.5-6.9l2-18c.2-2.2-.9-3.2-2.6-2.7ZM374.9,247.4c0,.3,0,.6,0,.9l-2.2,18.2c-.3,2.5-2.3,5.6-4.6,6.9l-30.1,17.4c-.3.2-.6.3-.9.4.2,1.8,1.6,2.5,3.5,1.4l30.1-17.4c2.2-1.3,4.3-4.4,4.6-6.9l2.2-18.2c.3-2.2-.9-3.2-2.6-2.7ZM327.3,304.6c0,.3,0,.6,0,.9l-1.3,13.3c-.3,2.5-2.3,5.6-4.5,6.9l-30.8,17.8c-.3.2-.6.3-.9.4.2,1.8,1.6,2.5,3.5,1.4l30.8-17.8c2.2-1.3,4.2-4.4,4.5-6.9l1.3-13.3c.2-2.2-.9-3.2-2.6-2.7ZM371,279.3c0,.3,0,.6,0,.9l-1.6,13.6c-.3,2.5-2.3,5.6-4.6,6.9l-29.9,17.3c-.3.2-.6.3-.9.4.2,1.8,1.6,2.5,3.5,1.4l29.9-17.3c2.2-1.3,4.3-4.4,4.6-6.9l1.6-13.6c.3-2.2-.8-3.2-2.6-2.7Z"/>
        </g>
        <path class="st7" d="M385,202.2c0,.6-.7,1.4-1.7,2l-83.9,48.5c-1.6.9-3.9,1.5-6.4,1.5s-4.5-.5-6.1-1.4l-172.3-95.6c-1.2-.6-1.5-1.2-1.5-1.3h-3.7c0,1.7,1.1,3.3,3.4,4.6l172.3,95.6c4.5,2.5,11.7,2.4,16.1-.1l83.9-48.5c2.3-1.3,3.5-3.2,3.5-5.2h-3.7Z"/>
        <path class="st5" d="M385,202.2c0,.6-.7,1.4-1.7,2l-83.9,48.5c-1.6.9-3.9,1.5-6.4,1.5s-4.5-.5-6.1-1.4l-172.3-95.6c-1.2-.6-1.5-1.2-1.5-1.3h-3.7c0,1.7,1.1,3.3,3.4,4.6l172.3,95.6c4.5,2.5,11.7,2.4,16.1-.1l83.9-48.5c2.3-1.3,3.5-3.2,3.5-5.2h-3.7Z"/>
      </g>
    </g>
  </g>
  <g id="Sparkles">
    <path id="Sparkles1" data-name="Sparkles" class="st9" d="M86.3,206.4l-8-.9c-.8,0-1.4-.7-1.5-1.5l-.9-10.2c0-.3-.3-.5-.5-.5s-.5.2-.5.5l-.9,10.2c0,.8-.7,1.4-1.5,1.5l-8,.9c-.3,0-.5.3-.5.5s.2.5.5.5l8,.9c.8,0,1.4.7,1.5,1.5l.9,10.2c0,.3.3.5.5.5s.5-.2.5-.5l.9-10.2c0-.8.7-1.4,1.5-1.5l8-.9c.3,0,.5-.3.5-.5s-.2-.5-.5-.5ZM78.1,207.3c-1.3.1-2.3,1.2-2.4,2.5l-.4,4.2-.4-4.2c-.1-1.3-1.1-2.3-2.4-2.5l-3.1-.3,3.1-.3c1.3-.1,2.3-1.2,2.4-2.5h0s.4-4.2.4-4.2l.4,4.2c.1,1.3,1.1,2.3,2.4,2.5l3.1.3-3.1.3ZM355.3,96.4l-11.5-1.3c-1.2-.1-2.2-1.1-2.3-2.4l-1.3-14.7c0-.3-.3-.5-.5-.5s-.5.2-.5.5l-1.3,14.7c-.1,1.2-1.1,2.2-2.3,2.4l-11.5,1.3c-.3,0-.5.3-.5.5s.2.5.5.5l11.5,1.3c1.2.1,2.2,1.1,2.3,2.4l1.3,14.7c0,.3.3.5.5.5s.5-.2.5-.5l1.3-14.7c.1-1.2,1.1-2.2,2.3-2.4l11.5-1.3c.3,0,.5-.3.5-.5s-.2-.5-.5-.5ZM343.7,97.7c-1.7.2-3.1,1.6-3.2,3.3l-.8,8.8-.8-8.8c-.2-1.7-1.5-3.1-3.2-3.3l-6.7-.7,6.7-.7c1.7-.2,3.1-1.6,3.2-3.3l.8-8.8.8,8.8c.2,1.7,1.5,3.1,3.2,3.3l6.7.7-6.7.7ZM35.4,126.9l5.1.6c.5,0,.9.5.9.9l.6,6.5c0,.2.2.3.3.3s.3-.1.3-.3l.6-6.5c0-.5.4-.9.9-.9l5.1-.6c.2,0,.3-.2.3-.3s-.1-.3-.3-.3l-5.1-.6c-.5,0-.9-.5-.9-.9l-.6-6.5c0-.2-.2-.3-.3-.3s-.3.1-.3.3l-.6,6.5c0,.5-.4.9-.9.9l-5.1.6c-.2,0-.3.2-.3.3s.1.3.3.3ZM40.6,126.3c.8,0,1.5-.8,1.5-1.6h0s.2-2.7.2-2.7l.2,2.7c0,.8.7,1.5,1.5,1.6l2,.2-2,.2c-.8,0-1.5.8-1.5,1.6l-.2,2.7-.2-2.7c0-.8-.7-1.5-1.5-1.6l-2-.2,2-.2ZM129,52.1l5.1.6c.5,0,.9.5.9.9l.6,6.5c0,.2.2.3.3.3s.3-.1.3-.3l.6-6.5c0-.5.4-.9.9-.9l5.1-.6c.2,0,.3-.2.3-.3s-.1-.3-.3-.3l-5.1-.6c-.5,0-.9-.5-.9-.9l-.6-6.5c0-.2-.2-.3-.3-.3s-.3.1-.3.3l-.6,6.5c0,.5-.4.9-.9.9l-5.1.6c-.2,0-.3.2-.3.3s.1.3.3.3ZM134.2,51.5c.8,0,1.5-.8,1.5-1.6h0s.2-2.7.2-2.7l.2,2.7c0,.8.7,1.5,1.5,1.6l2,.2-2,.2c-.8,0-1.5.8-1.5,1.6l-.2,2.7-.2-2.7c0-.8-.7-1.5-1.5-1.6l-2-.2,2-.2ZM55.1,143.3l5.1.6c.5,0,.9.5.9.9l.6,6.5c0,.2.2.3.3.3s.3-.1.3-.3l.6-6.5c0-.5.4-.9.9-.9l5.1-.6c.2,0,.3-.2.3-.3s-.1-.3-.3-.3l-5.1-.6c-.5,0-.9-.5-.9-.9l-.6-6.5c0-.2-.2-.3-.3-.3s-.3.1-.3.3l-.6,6.5c0,.5-.4.9-.9.9l-5.1.6c-.2,0-.3.2-.3.3s.1.3.3.3ZM60.3,142.7c.8,0,1.5-.8,1.5-1.6h0s.2-2.7.2-2.7l.2,2.7c0,.8.7,1.5,1.5,1.6l2,.2-2,.2c-.8,0-1.5.8-1.5,1.6l-.2,2.7-.2-2.7c0-.8-.7-1.5-1.5-1.6l-2-.2,2-.2ZM401.8,144.3l5.5.6c.5,0,.9.5,1,1l.6,7c0,.2.2.3.4.3s.4-.1.4-.3l.6-7c0-.5.5-1,1-1l5.5-.6c.2,0,.3-.2.3-.4s-.1-.3-.3-.4l-5.5-.6c-.5,0-.9-.5-1-1l-.6-7c0-.2-.2-.3-.4-.3s-.4.1-.4.3l-.6,7c0,.5-.5,1-1,1l-5.5.6c-.2,0-.3.2-.3.4s.1.3.3.4ZM407.3,143.7c.9,0,1.6-.8,1.6-1.7h0s.3-2.9.3-2.9l.3,2.9c0,.9.8,1.6,1.6,1.7l2.1.2-2.1.2c-.9,0-1.6.8-1.6,1.7l-.3,2.9-.3-2.9c0-.9-.8-1.6-1.6-1.7l-2.1-.2,2.1-.2ZM281.4,64l4.7.5c.5,0,.8.4.9.9l.5,6c0,.2.2.3.3.3s.3-.1.3-.3l.5-6c0-.5.4-.8.9-.9l4.7-.5c.2,0,.3-.2.3-.3s-.1-.3-.3-.3l-4.7-.5c-.5,0-.8-.4-.9-.9l-.5-6c0-.2-.2-.3-.3-.3s-.3.1-.3.3l-.5,6c0,.5-.4.8-.9.9l-4.7.5c-.2,0-.3.2-.3.3s.1.3.3.3ZM286.2,63.5c.8,0,1.4-.7,1.4-1.5l.2-2.5.2,2.5c0,.8.7,1.4,1.4,1.5l1.9.2-1.9.2c-.8,0-1.4.7-1.4,1.5l-.2,2.5-.2-2.5c0-.8-.7-1.4-1.4-1.5l-1.9-.2,1.9-.2ZM373.9,61.1l5.6.6c.5,0,1,.5,1,1l.6,7.1c0,.2.2.3.4.3s.4-.1.4-.3l.6-7.1c0-.5.5-1,1-1l5.6-.6c.2,0,.3-.2.3-.4s-.1-.4-.3-.4l-5.6-.6c-.5,0-1-.5-1-1l-.6-7.1c0-.2-.2-.3-.4-.3s-.4.1-.4.3l-.6,7.1c0,.5-.5,1-1,1l-5.6.6c-.2,0-.3.2-.3.4s.1.4.3.4ZM379.6,60.5c.9,0,1.6-.8,1.7-1.7l.3-2.9.3,2.9c0,.9.8,1.6,1.7,1.7l2.2.2-2.2.2c-.9,0-1.6.8-1.7,1.7l-.3,2.9-.3-2.9c0-.9-.8-1.6-1.7-1.7l-2.2-.2,2.2-.2ZM465.7,235.3l-4.3-.5c-.4,0-.7-.4-.8-.8l-.5-5.5c0-.2-.1-.3-.3-.3s-.3.1-.3.3l-.5,5.5c0,.4-.4.8-.8.8l-4.3.5c-.1,0-.3.1-.3.3s.1.3.3.3l4.3.5c.4,0,.7.4.8.8l.5,5.5c0,.2.1.3.3.3s.3-.1.3-.3l.5-5.5c0-.4.4-.8.8-.8l4.3-.5c.1,0,.3-.1.3-.3s-.1-.3-.3-.3ZM461.4,235.8c-.7,0-1.2.6-1.3,1.3l-.2,2.3-.2-2.3c0-.7-.6-1.3-1.3-1.3l-1.7-.2,1.7-.2c.7,0,1.2-.6,1.3-1.3h0s.2-2.3.2-2.3l.2,2.3c0,.7.6,1.3,1.3,1.3l1.7.2-1.7.2ZM49.3,232.8l-5.1-.6c-.5,0-.9-.5-.9-.9l-.6-6.5c0-.2-.2-.3-.3-.3s-.3.1-.3.3l-.6,6.5c0,.5-.4.9-.9.9l-5.1.6c-.2,0-.3.2-.3.3s.1.3.3.3l5.1.6c.5,0,.9.5.9.9l.6,6.5c0,.2.2.3.3.3s.3-.1.3-.3l.6-6.5c0-.5.4-.9.9-.9l5.1-.6c.2,0,.3-.2.3-.3s-.1-.3-.3-.3ZM44.1,233.4c-.8,0-1.5.8-1.5,1.6l-.2,2.7-.2-2.7c0-.8-.7-1.5-1.5-1.6l-2-.2,2-.2c.8,0,1.5-.8,1.5-1.6h0s.2-2.7.2-2.7l.2,2.7c0,.8.7,1.5,1.5,1.6l2,.2-2,.2ZM441.7,202.8l-8-.9c-.8,0-1.4-.7-1.5-1.5l-.9-10.2c0-.3-.3-.5-.5-.5s-.5.2-.5.5l-.9,10.2c0,.8-.7,1.4-1.5,1.5l-8,.9c-.3,0-.5.3-.5.5s.2.5.5.5l8,.9c.8,0,1.4.7,1.5,1.5l.9,10.2c0,.3.3.5.5.5s.5-.2.5-.5l.9-10.2c0-.8.7-1.4,1.5-1.5l8-.9c.3,0,.5-.3.5-.5s-.2-.5-.5-.5ZM433.5,203.7c-1.3.1-2.3,1.2-2.4,2.5l-.4,4.2-.4-4.2c-.1-1.3-1.1-2.3-2.4-2.5l-3.1-.3,3.1-.3c1.3-.1,2.3-1.2,2.4-2.5l.4-4.2.4,4.2c.1,1.3,1.1,2.3,2.4,2.5l3.1.3-3.1.3ZM66.9,45.7l-5.1-.6c-.5,0-.9-.5-.9-.9l-.6-6.5c0-.2-.2-.3-.3-.3s-.3.1-.3.3l-.6,6.5c0,.5-.4.9-.9.9l-5.1.6c-.2,0-.3.2-.3.3s.1.3.3.3l5.1.6c.5,0,.9.5.9.9l.6,6.5c0,.2.2.3.3.3s.3-.1.3-.3l.6-6.5c0-.5.4-.9.9-.9l5.1-.6c.2,0,.3-.2.3-.3s-.1-.3-.3-.3ZM61.7,46.3c-.8,0-1.5.8-1.5,1.6l-.2,2.7-.2-2.7c0-.8-.7-1.5-1.5-1.6l-2-.2,2-.2c.8,0,1.5-.8,1.5-1.6h0s.2-2.7.2-2.7l.2,2.7c0,.8.7,1.5,1.5,1.6l2,.2-2,.2ZM464.6,115.5l-11.2-1.2c-1.2-.1-2.1-1.1-2.2-2.3l-1.3-14.2c0-.3-.2-.5-.5-.5s-.5.2-.5.5l-1.3,14.2c-.1,1.2-1,2.1-2.2,2.3l-11.2,1.2c-.3,0-.5.2-.5.5s.2.5.5.5l11.2,1.2c1.2.1,2.1,1.1,2.2,2.3l1.3,14.2c0,.3.2.5.5.5s.5-.2.5-.5l1.3-14.2c.1-1.2,1-2.1,2.2-2.3l11.2-1.2c.3,0,.5-.2.5-.5s-.2-.5-.5-.5ZM453.3,116.7c-1.7.2-3,1.5-3.1,3.2l-.8,8.6-.8-8.6c-.2-1.7-1.5-3-3.1-3.2l-6.5-.7,6.5-.7c1.7-.2,3-1.5,3.1-3.2l.8-8.6.8,8.6c.2,1.7,1.5,3,3.1,3.2l6.5.7-6.5.7ZM98.8,70.9l-8.9-1c-.9,0-1.5-.8-1.6-1.6l-1-11.3c0-.3-.3-.5-.6-.5s-.6.2-.6.5l-1,11.3c0,.9-.8,1.5-1.6,1.6l-8.9,1c-.3,0-.5.3-.5.6s.2.6.5.6l8.9,1c.9,0,1.5.8,1.6,1.6l1,11.3c0,.3.3.5.6.5s.6-.2.6-.5l1-11.3c0-.9.8-1.5,1.6-1.6l8.9-1c.3,0,.5-.3.5-.6s-.2-.6-.5-.6ZM89.8,71.9c-1.4.2-2.5,1.3-2.7,2.7l-.4,4.7-.4-4.7c-.1-1.4-1.3-2.6-2.7-2.7l-3.5-.4,3.5-.4c1.4-.2,2.5-1.3,2.7-2.7h0s.4-4.7.4-4.7l.4,4.7c.1,1.4,1.3,2.6,2.7,2.7l3.5.4-3.5.4Z"/>
  </g>
</svg>